<?xml version="1.0" encoding="utf-8"?>
<!-- Generator: Adobe Illustrator 18.0.0, SVG Export Plug-In . SVG Version: 6.00 Build 0)  -->
<!DOCTYPE svg PUBLIC "-//W3C//DTD SVG 1.1//EN" "http://www.w3.org/Graphics/SVG/1.1/DTD/svg11.dtd">
<svg version="1.1" id="Layer_1" xmlns="http://www.w3.org/2000/svg" xmlns:xlink="http://www.w3.org/1999/xlink" x="0px" y="0px"
	 viewBox="0 0 49.5 96.5" enable-background="new 0 0 49.5 96.5" xml:space="preserve">
<path fill="#FFFFFF" d="M49.3,17.9c-0.2,1.4-2.1,1.5-2.2,0c-0.1-1.7-0.2-3.4-0.4-5c-0.5,7.8-2.1,15.7-3.8,23
	c-2.1,9.2-5,18.1-9.1,26.6c-3.7,7.6-8.5,14.8-14.2,21.1C14.8,88.9,8,96,0.6,96.5c-0.6,0-0.8-1.1-0.2-1.2c7.7-1.2,14.5-9.1,19.3-14.9
	c5.3-6.4,9.7-13.6,13.2-21.2c3.8-8.3,6.4-17,8.3-25.9c1.9-9.2,2.3-18.6,3.8-27.9C45,5,45.4,4.8,45.8,4.8c0-0.3-0.1-0.5-0.1-0.8
	c-2.2,3.2-4.3,6.5-6.6,9.6c-0.5,0.7-1.6,0.1-1.2-0.7c2.3-4.2,5-8.2,7.3-12.3c0.5-0.9,1.9-0.7,2.1,0.3C48.8,6.2,50,12.4,49.3,17.9z"
	/>
</svg>
