<?xml version="1.0" encoding="utf-8"?>
<!-- Generator: Adobe Illustrator 18.0.0, SVG Export Plug-In . SVG Version: 6.00 Build 0)  -->
<!DOCTYPE svg PUBLIC "-//W3C//DTD SVG 1.1//EN" "http://www.w3.org/Graphics/SVG/1.1/DTD/svg11.dtd">
<svg version="1.1" id="Layer_1" xmlns="http://www.w3.org/2000/svg" xmlns:xlink="http://www.w3.org/1999/xlink" x="0px" y="0px"
	 viewBox="0 0 26.7 26.7" enable-background="new 0 0 26.7 26.7" xml:space="preserve">
<g>
	<path fill="#FFFFFF" d="M13.3,0C6,0,0,6,0,13.3s6,13.3,13.3,13.3c7.4,0,13.3-6,13.3-13.3S20.7,0,13.3,0z M13.3,25.6
		c-6.8,0-12.3-5.5-12.3-12.3S6.6,1.1,13.3,1.1c6.8,0,12.3,5.5,12.3,12.3S20.1,25.6,13.3,25.6z"/>
	<path fill="#FFFFFF" d="M12.5,7.6l-0.8-0.8l-6.5,6.5l6.5,6.5l0.8-0.8l-5.2-5.2h12.9v-1.1H7.3L12.5,7.6z"/>
</g>
</svg>
