<?xml version="1.0" encoding="utf-8"?>
<!-- Generator: Adobe Illustrator 18.0.0, SVG Export Plug-In . SVG Version: 6.00 Build 0)  -->
<!DOCTYPE svg PUBLIC "-//W3C//DTD SVG 1.1//EN" "http://www.w3.org/Graphics/SVG/1.1/DTD/svg11.dtd">
<svg version="1.1" id="Layer_1" xmlns="http://www.w3.org/2000/svg" xmlns:xlink="http://www.w3.org/1999/xlink" x="0px" y="0px"
	 viewBox="0 0 23.3 23.3" enable-background="new 0 0 23.3 23.3" xml:space="preserve">
<g>
	<path d="M0,0v23.3h23.3V0H0z M22.4,1v4.4H1V1L22.4,1z M1,22.4v-16h21.4v16H1z"/>
	<path d="M7.3,2.4h1.5v1.5H7.3V2.4z"/>
	<path d="M14.6,2.4H16v1.5h-1.5L14.6,2.4z"/>
	<path d="M8.3,9.8C8.2,11,7.6,11,6.5,11l-0.2,0v0.8h1.9v5.4h1V9.6H8.4L8.3,9.8L8.3,9.8z"/>
	<path d="M14.1,12.1c-0.5,0-0.9,0.1-1.3,0.4l0.3-1.8h3.2v-1h-4l-0.8,4.1h0.9l0.1-0.1c0.3-0.5,0.9-0.8,1.5-0.8c1,0,1.7,0.7,1.7,1.7
		c0,0.9-0.6,1.8-1.6,1.8c-0.9,0-1.6-0.6-1.6-1.5l0-0.2h-1l0,0.2c0,1.4,1.1,2.4,2.6,2.4c1.5,0,2.7-1.2,2.7-2.6
		C16.7,13.2,15.6,12.1,14.1,12.1L14.1,12.1z"/>
</g>
</svg>
