<?xml version="1.0" encoding="utf-8"?>
<!-- Generator: Adobe Illustrator 18.0.0, SVG Export Plug-In . SVG Version: 6.00 Build 0)  -->
<!DOCTYPE svg PUBLIC "-//W3C//DTD SVG 1.1//EN" "http://www.w3.org/Graphics/SVG/1.1/DTD/svg11.dtd">
<svg version="1.1" id="Layer_1" xmlns="http://www.w3.org/2000/svg" xmlns:xlink="http://www.w3.org/1999/xlink" x="0px" y="0px"
	 viewBox="0 0 37.3 37.3" enable-background="new 0 0 37.3 37.3" xml:space="preserve">
<path id="facebook-circle-icon" fill="#FFFFFF" d="M18.7,0C8.4,0,0,8.4,0,18.7s8.4,18.7,18.7,18.7S37.3,29,37.3,18.7S29,0,18.7,0z
	 M24.2,11c0,0-1.9,0-2.6,0c-0.9,0-1.1,0.4-1.1,1.3c0,0.8,0,2.3,0,2.3h3.7l-0.4,4h-3.4v12.1h-4.8v-12h-2.5v-4.1h2.5c0,0,0-0.6,0-3.2
	c0-3,1.6-4.6,5.2-4.6c0.6,0,3.3,0,3.3,0L24.2,11L24.2,11z"/>
</svg>
