<?xml version="1.0" encoding="utf-8"?>
<!-- Generator: Adobe Illustrator 18.0.0, SVG Export Plug-In . SVG Version: 6.00 Build 0)  -->
<!DOCTYPE svg PUBLIC "-//W3C//DTD SVG 1.1//EN" "http://www.w3.org/Graphics/SVG/1.1/DTD/svg11.dtd">
<svg version="1.1" id="Layer_1" xmlns="http://www.w3.org/2000/svg" xmlns:xlink="http://www.w3.org/1999/xlink" x="0px" y="0px"
	 viewBox="0 0 12.6 12.6" enable-background="new 0 0 12.6 12.6" xml:space="preserve">
<g>
	<rect x="0" y="0" fill="#F299C1" width="12.6" height="12.6"/>
</g>
<g>
	<path fill="#FFFFFF" d="M5.4,3.8c0,0.4-0.1,0.7-0.3,0.9C4.9,5,4.6,5.1,4.2,5.1C3.9,5.1,3.6,5,3.4,4.8C3.2,4.6,3.1,4.2,3.1,3.8
		s0.1-0.7,0.3-0.9c0.2-0.2,0.5-0.3,0.9-0.3c0.4,0,0.6,0.1,0.8,0.3C5.3,3.1,5.4,3.4,5.4,3.8z M3.5,3.8c0,0.3,0.1,0.5,0.2,0.7
		C3.8,4.7,4,4.8,4.2,4.8c0.2,0,0.4-0.1,0.5-0.2C4.9,4.4,5,4.1,5,3.8c0-0.3-0.1-0.5-0.2-0.7C4.7,3,4.5,2.9,4.2,2.9
		C4,2.9,3.8,3,3.7,3.2C3.6,3.3,3.5,3.5,3.5,3.8z"/>
	<path fill="#FFFFFF" d="M7,2.9C6.7,2.9,6.5,3,6.4,3.2C6.3,3.3,6.2,3.6,6.2,3.8c0,0.3,0.1,0.5,0.2,0.7C6.5,4.7,6.7,4.8,7,4.8
		c0.1,0,0.2,0,0.3,0c0.1,0,0.2,0,0.3-0.1V5C7.4,5.1,7.2,5.1,6.9,5.1C6.6,5.1,6.3,5,6.1,4.8C5.9,4.6,5.8,4.2,5.8,3.8
		c0-0.3,0-0.5,0.1-0.7C6,3,6.2,2.8,6.3,2.7C6.5,2.6,6.7,2.6,7,2.6c0.3,0,0.5,0.1,0.7,0.2L7.5,3.1C7.4,3,7.3,3,7.3,3
		C7.2,2.9,7.1,2.9,7,2.9z"/>
	<path fill="#FFFFFF" d="M8.9,5.1H8.5V3H7.8V2.6h1.9V3H8.9V5.1z"/>
	<path fill="#FFFFFF" d="M6.3,7.3c0.4,0,0.6,0.1,0.8,0.3C7.4,7.8,7.5,8,7.5,8.4c0,0.4-0.1,0.7-0.4,0.9c-0.2,0.2-0.6,0.3-1,0.3
		c-0.4,0-0.7-0.1-0.9-0.2V8.9C5.3,8.9,5.5,9,5.6,9c0.2,0,0.3,0.1,0.5,0.1c0.3,0,0.4-0.1,0.6-0.2c0.1-0.1,0.2-0.3,0.2-0.5
		c0-0.4-0.3-0.6-0.8-0.6c-0.1,0-0.2,0-0.3,0c-0.1,0-0.2,0-0.3,0.1L5.2,7.7L5.4,6h1.8v0.5H5.9L5.8,7.4c0.1,0,0.1,0,0.2,0
		C6.1,7.3,6.2,7.3,6.3,7.3z"/>
</g>
</svg>