<?xml version="1.0" encoding="utf-8"?>
<!-- Generator: Adobe Illustrator 18.0.0, SVG Export Plug-In . SVG Version: 6.00 Build 0)  -->
<!DOCTYPE svg PUBLIC "-//W3C//DTD SVG 1.1//EN" "http://www.w3.org/Graphics/SVG/1.1/DTD/svg11.dtd">
<svg version="1.1" id="Layer_1" xmlns="http://www.w3.org/2000/svg" xmlns:xlink="http://www.w3.org/1999/xlink" x="0px" y="0px"
	 viewBox="0 0 13.1 13.1" enable-background="new 0 0 13.1 13.1" xml:space="preserve">
<g>
	<rect x="0.3" y="0.2" fill="#FFFFFF" stroke="#010101" stroke-width="0.5" stroke-miterlimit="10" width="12.6" height="12.6"/>
</g>
<g>
	<path fill="#010101" d="M5.6,4.1c0,0.4-0.1,0.7-0.3,0.9C5.1,5.2,4.9,5.4,4.5,5.4C4.1,5.4,3.8,5.2,3.6,5C3.4,4.8,3.3,4.5,3.3,4.1
		c0-0.4,0.1-0.7,0.3-0.9c0.2-0.2,0.5-0.3,0.9-0.3c0.4,0,0.6,0.1,0.8,0.3C5.5,3.4,5.6,3.7,5.6,4.1z M3.8,4.1c0,0.3,0.1,0.5,0.2,0.7
		C4.1,4.9,4.2,5,4.5,5C4.7,5,4.9,4.9,5,4.8c0.1-0.2,0.2-0.4,0.2-0.7c0-0.3-0.1-0.5-0.2-0.7C4.9,3.2,4.7,3.2,4.5,3.2
		c-0.2,0-0.4,0.1-0.5,0.2C3.8,3.6,3.8,3.8,3.8,4.1z"/>
	<path fill="#010101" d="M7.2,3.2C7,3.2,6.8,3.3,6.7,3.4C6.5,3.6,6.5,3.8,6.5,4.1c0,0.3,0.1,0.5,0.2,0.7C6.8,4.9,7,5,7.2,5
		c0.1,0,0.2,0,0.3,0c0.1,0,0.2,0,0.3-0.1v0.3C7.6,5.3,7.4,5.4,7.2,5.4C6.8,5.4,6.5,5.2,6.3,5C6.1,4.8,6,4.5,6,4.1
		c0-0.3,0-0.5,0.1-0.7C6.3,3.2,6.4,3.1,6.6,3C6.8,2.9,7,2.8,7.2,2.8c0.3,0,0.5,0.1,0.7,0.2L7.8,3.3c-0.1,0-0.2-0.1-0.3-0.1
		C7.4,3.2,7.3,3.2,7.2,3.2z"/>
	<path fill="#010101" d="M9.2,5.3H8.8V3.2H8.1V2.9h1.9v0.3H9.2V5.3z"/>
	<path fill="#010101" d="M6.6,7.6c0.4,0,0.6,0.1,0.8,0.3C7.6,8,7.7,8.3,7.7,8.6c0,0.4-0.1,0.7-0.4,0.9c-0.2,0.2-0.6,0.3-1,0.3
		C6,9.8,5.6,9.7,5.4,9.6V9.1c0.1,0.1,0.3,0.1,0.4,0.2c0.2,0,0.3,0.1,0.5,0.1c0.3,0,0.4-0.1,0.6-0.2C7.1,9,7.1,8.9,7.1,8.7
		C7.1,8.2,6.9,8,6.3,8C6.2,8,6.2,8,6,8.1c-0.1,0-0.2,0-0.3,0.1L5.5,8l0.1-1.7h1.8v0.5H6.1L6.1,7.6c0.1,0,0.1,0,0.2,0
		C6.3,7.6,6.4,7.6,6.6,7.6z"/>
</g>
</svg>
