<?xml version="1.0" encoding="utf-8"?>
<!-- Generator: Adobe Illustrator 18.0.0, SVG Export Plug-In . SVG Version: 6.00 Build 0)  -->
<!DOCTYPE svg PUBLIC "-//W3C//DTD SVG 1.1//EN" "http://www.w3.org/Graphics/SVG/1.1/DTD/svg11.dtd">
<svg version="1.1" id="Layer_1" xmlns="http://www.w3.org/2000/svg" xmlns:xlink="http://www.w3.org/1999/xlink" x="0px" y="0px"
	 viewBox="0 0 26.7 26.7" enable-background="new 0 0 26.7 26.7" xml:space="preserve">
<path fill="#FFFFFF" d="M13.4,8.5c0.9,0,1.6-0.7,1.6-1.6c0-0.9-0.7-1.6-1.6-1.6S11.8,6,11.8,6.9C11.8,7.8,12.5,8.5,13.4,8.5z"/>
<path fill="#FFFFFF" d="M14.5,10.6V9.6h-3.2v1.1h1.1v9.1h-1.1v1.1h4.3v-1.1h-1.1V10.6z"/>
<path fill="#FFFFFF" d="M13.3,0C6,0,0,6,0,13.3c0,7.4,6,13.3,13.3,13.3s13.3-6,13.3-13.3C26.7,6,20.7,0,13.3,0z M13.3,25.6
	c-6.8,0-12.3-5.5-12.3-12.3S6.6,1.1,13.3,1.1c6.8,0,12.3,5.5,12.3,12.3S20.1,25.6,13.3,25.6z"/>
</svg>
