<?xml version="1.0" encoding="utf-8"?>
<!-- Generator: Adobe Illustrator 18.0.0, SVG Export Plug-In . SVG Version: 6.00 Build 0)  -->
<!DOCTYPE svg PUBLIC "-//W3C//DTD SVG 1.1//EN" "http://www.w3.org/Graphics/SVG/1.1/DTD/svg11.dtd">
<svg version="1.1" id="Layer_1" xmlns="http://www.w3.org/2000/svg" xmlns:xlink="http://www.w3.org/1999/xlink" x="0px" y="0px"
	 viewBox="0 0 20.6 20.6" enable-background="new 0 0 20.6 20.6" xml:space="preserve">
<path fill="#010101" d="M0,10.3C0,16,4.6,20.6,10.3,20.6S20.6,16,20.6,10.3S16,0,10.3,0S0,4.6,0,10.3z M19.8,10.3
	c0,5.2-4.2,9.5-9.5,9.5s-9.5-4.3-9.5-9.5s4.3-9.5,9.5-9.5S19.8,5.1,19.8,10.3z"/>
<path fill="#010101" d="M12.8,10.9l0.6-0.6L8.7,5.6L8.1,6.2l4.1,4.1l-4.1,4.1l0.6,0.6l2.3-2.3L12.8,10.9z"/>
</svg>
