<?xml version="1.0" encoding="utf-8"?>
<!-- Generator: Adobe Illustrator 18.0.0, SVG Export Plug-In . SVG Version: 6.00 Build 0)  -->
<!DOCTYPE svg PUBLIC "-//W3C//DTD SVG 1.1//EN" "http://www.w3.org/Graphics/SVG/1.1/DTD/svg11.dtd">
<svg version="1.1" id="Layer_1" xmlns="http://www.w3.org/2000/svg" xmlns:xlink="http://www.w3.org/1999/xlink" x="0px" y="0px"
	 viewBox="0 0 114.2 114.2" enable-background="new 0 0 114.2 114.2" xml:space="preserve">
<g>
	<path d="M39.7,114.2c-5.8,0.2-11.3-1.9-15.5-5.8c-8.7-8.2-9.1-21.8-0.9-30.5l3.8-4L6.8,54.8C2.6,50.9,0.2,45.5,0,39.7
		s1.9-11.3,5.8-15.5s9.3-6.6,15.1-6.8s11.3,1.9,15.5,5.8l4,3.8L59.4,6.8c3.9-4.2,9.3-6.6,15.1-6.8s11.3,1.9,15.5,5.8
		c4.2,3.9,6.6,9.3,6.8,15.1c0.2,5.8-1.9,11.3-5.8,15.5l-3.8,4l20.3,19.1c4.2,3.9,6.6,9.3,6.8,15.1c0.2,5.8-1.9,11.3-5.8,15.5
		c-3.9,4.2-9.3,6.6-15.1,6.8c-5.8,0.2-11.3-1.9-15.5-5.8l-4-3.8l-19.1,20.3C50.9,111.6,45.5,114,39.7,114.2z M21,18.8
		c-5.4,0.2-10.5,2.4-14.2,6.4c-3.7,4-5.7,9.1-5.5,14.6s2.4,10.5,6.4,14.2l21.2,19.9l-4.6,4.9c-7.7,8.2-7.3,21.1,0.9,28.7
		c4,3.7,9.1,5.7,14.6,5.5s10.5-2.4,14.2-6.4l19.9-21.2l4.9,4.6c4,3.7,9.1,5.7,14.6,5.5c5.4-0.2,10.5-2.4,14.2-6.4
		c3.7-4,5.7-9.1,5.5-14.6c-0.2-5.4-2.4-10.5-6.4-14.2L85.4,40.4l4.6-4.9c3.7-4,5.7-9.1,5.5-14.6c-0.2-5.4-2.4-10.5-6.4-14.2
		c-4-3.7-9.1-5.7-14.6-5.5S64.1,3.7,60.3,7.7L40.4,28.9l-4.9-4.6C31.5,20.5,26.4,18.6,21,18.8z"/>
</g>
<g>
	<path d="M78,113c-5.8,0.2-11.3-1.9-15.5-5.8L42.3,88.1l-3.8,4c-3.9,4.2-9.3,6.6-15.1,6.8C17.7,99.1,12.2,97,8,93.1
		C-0.7,84.9-1.1,71.2,7,62.6l19.1-20.3l-4-3.8c-4.2-3.9-6.6-9.3-6.8-15.1c-0.2-5.8,1.9-11.3,5.8-15.5s9.3-6.6,15.1-6.8
		S47.5,3.1,51.7,7L72,26.1l3.8-4c3.9-4.2,9.3-6.6,15.1-6.8c5.8-0.2,11.3,1.9,15.5,5.8c4.2,3.9,6.6,9.3,6.8,15.1s-1.9,11.3-5.8,15.5
		L88.1,72l4,3.8c4.2,3.9,6.6,9.3,6.8,15.1c0.2,5.8-1.9,11.3-5.8,15.5C89.1,110.4,83.8,112.9,78,113z M42.2,86.3l21.2,19.9
		c4,3.7,9.1,5.7,14.6,5.5c5.4-0.2,10.5-2.4,14.2-6.4c3.7-4,5.7-9.1,5.5-14.6s-2.4-10.5-6.4-14.2L86.3,72l19.9-21.2
		c3.7-4,5.7-9.1,5.5-14.6s-2.4-10.5-6.4-14.2c-4-3.7-9.1-5.7-14.6-5.5C85.4,16.8,80.4,19,76.6,23L72,27.9L50.8,8
		c-4-3.7-9.1-5.7-14.6-5.5S25.8,4.9,22.1,8.9c-3.7,4-5.7,9.1-5.5,14.6S19,33.9,23,37.6l4.9,4.6L8,63.4c-7.7,8.2-7.3,21.1,0.9,28.7
		c4,3.7,9.1,5.7,14.6,5.5s10.5-2.4,14.2-6.4L42.2,86.3z"/>
</g>
<g>
	<path d="M79.8,62l-45.1,1.4c-1,0-1.9-0.8-1.9-1.8c0-0.7,0.3-1.4,1-1.7l22.6-11c0.1-0.9,0.8-2,1.5-3.1c0.7-1.1,1.4-2.2,1.4-2.9
		c0-1.4-1.3-2.6-2.7-2.5c-1.4,0-2.6,1.3-2.5,2.7l-0.9,0c-0.1-2,1.5-3.6,3.4-3.7s3.6,1.5,3.7,3.4c0,1-0.7,2.2-1.5,3.5
		c-0.6,1-1.2,1.9-1.3,2.6l23.2,9.5c0.7,0.3,1.1,0.9,1.1,1.6C81.7,61.1,80.9,62,79.8,62z M56.9,49.8l-22.7,11
		c-0.3,0.2-0.5,0.5-0.5,0.8c0,0.5,0.4,0.9,0.9,0.9l45.1-1.4c0.5,0,0.9-0.4,0.9-0.9c0-0.3-0.2-0.6-0.5-0.8L56.9,49.8z"/>
</g>
</svg>
