<?xml version="1.0" encoding="utf-8"?>
<!-- Generator: Adobe Illustrator 18.0.0, SVG Export Plug-In . SVG Version: 6.00 Build 0)  -->
<!DOCTYPE svg PUBLIC "-//W3C//DTD SVG 1.1//EN" "http://www.w3.org/Graphics/SVG/1.1/DTD/svg11.dtd">
<svg version="1.1" id="Layer_1" xmlns="http://www.w3.org/2000/svg" xmlns:xlink="http://www.w3.org/1999/xlink" x="0px" y="0px"
	 viewBox="0 0 113.1 113.1" enable-background="new 0 0 113.1 113.1" xml:space="preserve">
<g>
	<path fill="#FFFFFF" d="M37.4,113.1c-5.8,0-11.2-2.2-15.3-6.3c-8.4-8.4-8.4-22.1,0-30.5l3.9-3.9L6.3,52.7C2.2,48.6,0,43.2,0,37.4
		s2.2-11.2,6.3-15.3s9.5-6.3,15.3-6.3s11.2,2.2,15.3,6.3l3.9,3.9L60.4,6.3C64.5,2.2,69.9,0,75.7,0c5.8,0,11.2,2.2,15.3,6.3
		s6.3,9.5,6.3,15.3S95,32.8,90.9,36.8l-3.9,3.9l19.7,19.7c4.1,4.1,6.3,9.5,6.3,15.3c0,5.8-2.2,11.2-6.3,15.3
		c-4.1,4.1-9.5,6.3-15.3,6.3c-5.8,0-11.2-2.2-15.3-6.3l-3.9-3.9l-19.7,19.7C48.6,110.8,43.2,113.1,37.4,113.1z M21.6,17.1
		c-5.4,0-10.5,2.1-14.4,6c-3.8,3.8-6,8.9-6,14.4s2.1,10.5,6,14.4l20.6,20.6L23,77.1c-7.9,7.9-7.9,20.8,0,28.7c3.8,3.8,8.9,6,14.4,6
		s10.5-2.1,14.4-6l20.6-20.6l4.8,4.8c3.8,3.8,8.9,6,14.4,6s10.5-2.1,14.4-6c3.8-3.8,6-8.9,6-14.4s-2.1-10.5-6-14.4L85.3,40.7
		l4.8-4.8c3.8-3.8,6-8.9,6-14.4s-2.1-10.5-6-14.4c-3.8-3.8-8.9-6-14.4-6s-10.5,2.1-14.4,6L40.7,27.8L36,23
		C32.1,19.2,27,17.1,21.6,17.1z"/>
</g>
<g>
	<path fill="#FFFFFF" d="M75.7,113.1c-5.8,0-11.2-2.2-15.3-6.3L40.7,87.1l-3.9,3.9c-4.1,4.1-9.5,6.3-15.3,6.3S10.4,95,6.3,90.9
		c-8.4-8.4-8.4-22.1,0-30.5L26,40.7l-3.9-3.9c-4.1-4.1-6.3-9.5-6.3-15.3s2.2-11.2,6.3-15.3S31.6,0,37.4,0s11.2,2.2,15.3,6.3L72.4,26
		l3.9-3.9c4.1-4.1,9.5-6.3,15.3-6.3c5.8,0,11.2,2.2,15.3,6.3c4.1,4.1,6.3,9.5,6.3,15.3s-2.2,11.2-6.3,15.3L87.1,72.4l3.9,3.9
		c4.1,4.1,6.3,9.5,6.3,15.3c0,5.8-2.2,11.2-6.3,15.3C86.9,110.8,81.4,113.1,75.7,113.1z M40.7,85.3l20.6,20.6c3.8,3.8,8.9,6,14.4,6
		s10.5-2.1,14.4-6c3.8-3.8,6-8.9,6-14.4s-2.1-10.5-6-14.4l-4.8-4.8l20.6-20.6c3.8-3.8,6-8.9,6-14.4s-2.1-10.5-6-14.4
		c-3.8-3.8-8.9-6-14.4-6c-5.4,0-10.5,2.1-14.4,6l-4.8,4.8L51.8,7.2c-3.8-3.8-8.9-6-14.4-6S26.9,3.4,23,7.2c-3.8,3.8-6,8.9-6,14.4
		s2.1,10.5,6,14.4l4.8,4.8L7.2,61.3c-7.9,7.9-7.9,20.8,0,28.7c3.8,3.8,8.9,6,14.4,6s10.5-2.1,14.4-6L40.7,85.3z"/>
</g>
<g>
	<path fill="#FFFFFF" d="M79.1,62.1H34c-1,0-1.9-0.8-1.9-1.9c0-0.7,0.4-1.3,1-1.7l22.9-10.2c0.1-0.9,0.9-2,1.6-3.1
		c0.7-1.1,1.5-2.2,1.5-2.9c0-1.4-1.2-2.6-2.6-2.6s-2.6,1.2-2.6,2.6H53c0-2,1.6-3.6,3.6-3.6s3.6,1.6,3.6,3.6c0,1-0.8,2.2-1.6,3.4
		c-0.6,0.9-1.3,1.9-1.4,2.6l22.9,10.2c0.6,0.3,1,1,1,1.7C80.9,61.3,80.1,62.1,79.1,62.1z M56.5,49.2l-23,10.3
		c-0.3,0.1-0.5,0.5-0.5,0.8c0,0.5,0.4,0.9,0.9,0.9h45.1c0.5,0,0.9-0.4,0.9-0.9c0-0.3-0.2-0.7-0.5-0.8L56.5,49.2z"/>
</g>
</svg>
