<?xml version="1.0" encoding="utf-8"?>
<!-- Generator: Adobe Illustrator 18.0.0, SVG Export Plug-In . SVG Version: 6.00 Build 0)  -->
<!DOCTYPE svg PUBLIC "-//W3C//DTD SVG 1.1//EN" "http://www.w3.org/Graphics/SVG/1.1/DTD/svg11.dtd">
<svg version="1.1" id="Layer_1" xmlns="http://www.w3.org/2000/svg" xmlns:xlink="http://www.w3.org/1999/xlink" x="0px" y="0px"
	 viewBox="0 0 29.3 18.7" enable-background="new 0 0 29.3 18.7" xml:space="preserve">
<path fill="#FFFFFF" d="M28.1,0H0v18.7h29.3V0L28.1,0z M26.9,1.2L15.6,12.5c-0.5,0.5-1.4,0.5-1.9,0L2.4,1.2L26.9,1.2L26.9,1.2z
	 M1.2,1.6l7.6,7.6l-7.6,7.6L1.2,1.6L1.2,1.6z M2.1,17.6l7.5-7.5l3.2,3.2c0.5,0.5,1.1,0.7,1.8,0.7s1.3-0.3,1.8-0.7l3.2-3.2l7.5,7.5
	L2.1,17.6L2.1,17.6z M28.1,16.9l-7.6-7.6l7.6-7.6V16.9z"/>
</svg>
