<?xml version="1.0" encoding="utf-8"?>
<!-- Generator: Adobe Illustrator 18.0.0, SVG Export Plug-In . SVG Version: 6.00 Build 0)  -->
<!DOCTYPE svg PUBLIC "-//W3C//DTD SVG 1.1//EN" "http://www.w3.org/Graphics/SVG/1.1/DTD/svg11.dtd">
<svg version="1.1" id="Layer_1" xmlns="http://www.w3.org/2000/svg" xmlns:xlink="http://www.w3.org/1999/xlink" x="0px" y="0px"
	 viewBox="0 0 26.7 26.6" enable-background="new 0 0 26.7 26.6" xml:space="preserve">
<g>
	<g id="icomoon-ignore_21_">
	</g>
	<path fill="#FFFFFF" d="M7.2,2.3C6.4,4.1,5.9,6,5.9,7.9c0,7,5.7,12.7,12.7,12.7c2.1,0,4-0.5,5.8-1.4c-2.1,3.9-6.2,6.4-10.9,6.4
		c-6.9,0-12.5-5.6-12.5-12.5C1.1,8.6,3.5,4.5,7.2,2.3z M10.1,0C4.3,1.5,0,6.8,0,13.1c0,7.5,6.1,13.5,13.5,13.5
		c6.4,0,11.7-4.4,13.1-10.4c-2.1,2-4.9,3.3-8.1,3.3C12.2,19.5,7,14.3,7,7.9C7,4.8,8.2,2.1,10.1,0L10.1,0L10.1,0z"/>
</g>
</svg>
