<?xml version="1.0" encoding="utf-8"?>
<!-- Generator: Adobe Illustrator 18.0.0, SVG Export Plug-In . SVG Version: 6.00 Build 0)  -->
<!DOCTYPE svg PUBLIC "-//W3C//DTD SVG 1.1//EN" "http://www.w3.org/Graphics/SVG/1.1/DTD/svg11.dtd">
<svg version="1.1" id="Layer_1" xmlns="http://www.w3.org/2000/svg" xmlns:xlink="http://www.w3.org/1999/xlink" x="0px" y="0px"
	 viewBox="0 0 6.4 32" enable-background="new 0 0 6.4 32" xml:space="preserve">
<g>
	<g id="icomoon-ignore_20_">
	</g>
	<path fill="#FFFFFF" d="M6.4,3.2C6.4,1.4,5,0,3.2,0C1.4,0,0,1.4,0,3.2C0,5,1.4,6.4,3.2,6.4S6.4,5,6.4,3.2z M1.1,3.2
		c0-1.2,1-2.1,2.1-2.1s2.1,1,2.1,2.1s-1,2.1-2.1,2.1C2,5.3,1.1,4.4,1.1,3.2L1.1,3.2z"/>
	<path fill="#FFFFFF" d="M6.4,28.8c0-1.8-1.4-3.2-3.2-3.2S0,27,0,28.8C0,30.6,1.4,32,3.2,32S6.4,30.6,6.4,28.8z M1.1,28.8
		c0-1.2,1-2.1,2.1-2.1s2.1,1,2.1,2.1c0,1.2-1,2.1-2.1,2.1C2,30.9,1.1,30,1.1,28.8z"/>
	<path fill="#FFFFFF" d="M6.4,16c0-1.8-1.4-3.2-3.2-3.2S0,14.2,0,16c0,1.8,1.4,3.2,3.2,3.2S6.4,17.8,6.4,16z M1.1,16
		c0-1.2,1-2.1,2.1-2.1s2.1,1,2.1,2.1s-1,2.1-2.1,2.1C2,18.1,1.1,17.2,1.1,16z"/>
</g>
</svg>
