<?xml version="1.0" encoding="utf-8"?>
<!-- Generator: Adobe Illustrator 18.0.0, SVG Export Plug-In . SVG Version: 6.00 Build 0)  -->
<!DOCTYPE svg PUBLIC "-//W3C//DTD SVG 1.1//EN" "http://www.w3.org/Graphics/SVG/1.1/DTD/svg11.dtd">
<svg version="1.1" id="Layer_1" xmlns="http://www.w3.org/2000/svg" xmlns:xlink="http://www.w3.org/1999/xlink" x="0px" y="0px"
	 viewBox="0 0 32.5 24.7" enable-background="new 0 0 32.5 24.7" xml:space="preserve">
<g>
	<path fill="#FFFFFF" d="M15.8,1C9.5,1,4.4,6.1,4.4,12.4s5.1,11.4,11.4,11.4s11.4-5.1,11.4-11.4S22.1,1,15.8,1z M15.8,22.9
		c-5.8,0-10.5-4.7-10.5-10.5S10,1.9,15.8,1.9s10.5,4.7,10.5,10.5S21.6,22.9,15.8,22.9z"/>
	<path fill="#FFFFFF" d="M16.3,5.5h-0.9v6.4H9v0.9h6.4v6.4h0.9v-6.4h6.4v-0.9h-6.4V5.5z"/>
</g>
<path fill="#FFFFFF" d="M29.9,3.9h-5.4l-3.1-3.1c0,0,0,0,0,0l0,0C20.9,0.3,20.3,0,19.6,0h-6.5c-0.8,0-1.4,0.3-1.9,0.8l0,0L8.1,3.9
	H2.6C1.2,3.9,0,5.1,0,6.5v15.6c0,1.4,1.2,2.6,2.6,2.6h27.3c1.4,0,2.6-1.2,2.6-2.6V6.5C32.5,5.1,31.3,3.9,29.9,3.9L29.9,3.9z
	 M31.2,22.1c0,0.7-0.6,1.3-1.3,1.3H2.6c-0.7,0-1.3-0.6-1.3-1.3V6.5c0-0.7,0.6-1.3,1.3-1.3h6l2-2l0,0.1l1.5-1.6
	c0.3-0.3,0.6-0.4,0.9-0.4h6.5c0.3,0,0.7,0.1,0.9,0.4L24,5.2h5.9c0.7,0,1.3,0.6,1.3,1.3V22.1L31.2,22.1z"/>
<path fill="#FFFFFF" d="M16.2,5.2c-4.7,0-8.4,3.8-8.4,8.4s3.8,8.5,8.4,8.5s8.4-3.8,8.4-8.5S20.9,5.2,16.2,5.2z M16.2,20.8
	c-3.9,0-7.1-3.2-7.1-7.1s3.2-7.1,7.1-7.1s7.1,3.2,7.1,7.1C23.4,17.6,20.2,20.8,16.2,20.8z"/>
<path fill="#FFFFFF" d="M16.2,7.8c-3.2,0-5.8,2.6-5.8,5.8s2.6,5.8,5.8,5.8s5.8-2.6,5.8-5.8S19.5,7.8,16.2,7.8z M16.2,18.2
	c-2.5,0-4.5-2-4.5-4.6s2-4.5,4.5-4.5s4.5,2,4.5,4.5S18.8,18.2,16.2,18.2z"/>
</svg>
