<?xml version="1.0" encoding="utf-8"?>
<!-- Generator: Adobe Illustrator 18.0.0, SVG Export Plug-In . SVG Version: 6.00 Build 0)  -->
<!DOCTYPE svg PUBLIC "-//W3C//DTD SVG 1.1//EN" "http://www.w3.org/Graphics/SVG/1.1/DTD/svg11.dtd">
<svg version="1.1" id="Layer_1" xmlns="http://www.w3.org/2000/svg" xmlns:xlink="http://www.w3.org/1999/xlink" x="0px" y="0px"
	 viewBox="0 0 20.8 20.8" enable-background="new 0 0 20.8 20.8" xml:space="preserve">
<path fill="#010101" d="M20.8,10.4C20.8,4.7,16.1,0,10.4,0C4.7,0,0,4.7,0,10.4c0,5.7,4.7,10.4,10.4,10.4S20.8,16.1,20.8,10.4z
	 M0.8,10.4c0-5.3,4.3-9.6,9.6-9.6S20,5.1,20,10.4S15.7,20,10.4,20S0.8,15.7,0.8,10.4z"/>
<path fill="#010101" d="M7.9,9.8l-0.6,0.6l4.7,4.7l0.6-0.6l-4.1-4.1l4.1-4.1L12,5.7L9.7,8.1L7.9,9.8z"/>
</svg>
