<?xml version="1.0" encoding="utf-8"?>
<!-- Generator: Adobe Illustrator 18.0.0, SVG Export Plug-In . SVG Version: 6.00 Build 0)  -->
<!DOCTYPE svg PUBLIC "-//W3C//DTD SVG 1.1//EN" "http://www.w3.org/Graphics/SVG/1.1/DTD/svg11.dtd">
<svg version="1.1" id="Layer_1" xmlns="http://www.w3.org/2000/svg" xmlns:xlink="http://www.w3.org/1999/xlink" x="0px" y="0px"
	 viewBox="0 0 28.1 27.1" enable-background="new 0 0 28.1 27.1" xml:space="preserve">
<path fill="#FFFFFF" d="M24,0c-2.3,0-4.2,1.9-4.2,4.2c0,0.4,0.1,0.8,0.2,1.2L7.8,10.4C7.1,9.2,5.7,8.3,4.2,8.3
	C1.9,8.3,0,10.2,0,12.5s1.9,4.2,4.2,4.2c1.2,0,2.3-0.5,3.1-1.3l7.9,5.6c-0.3,0.6-0.5,1.2-0.5,1.9c0,2.3,1.9,4.2,4.2,4.2
	s4.2-1.9,4.2-4.2c0-2.3-1.9-4.2-4.2-4.2c-1.2,0-2.3,0.5-3.1,1.4l-7.8-5.6c0.3-0.6,0.5-1.3,0.5-2c0-0.4-0.1-0.8-0.2-1.1l12.2-5.1
	c0.7,1.2,2.1,2.1,3.6,2.1c2.3,0,4.2-1.9,4.2-4.2C28.1,1.9,26.3,0,24,0L24,0z M18.8,19.8c1.7,0,3.1,1.4,3.1,3.1
	c0,1.7-1.4,3.1-3.1,3.1c-1.7,0-3.1-1.4-3.1-3.1C15.6,21.2,17,19.8,18.8,19.8z M4.2,15.6c-1.7,0-3.1-1.4-3.1-3.1s1.4-3.1,3.1-3.1
	s3.1,1.4,3.1,3.1S5.9,15.6,4.2,15.6z M24,7.3c-1.7,0-3.1-1.4-3.1-3.1S22.2,1,24,1s3.1,1.4,3.1,3.1S25.7,7.3,24,7.3z"/>
</svg>
