<?xml version="1.0" encoding="utf-8"?>
<!-- Generator: Adobe Illustrator 18.0.0, SVG Export Plug-In . SVG Version: 6.00 Build 0)  -->
<!DOCTYPE svg PUBLIC "-//W3C//DTD SVG 1.1//EN" "http://www.w3.org/Graphics/SVG/1.1/DTD/svg11.dtd">
<svg version="1.1" id="Layer_1" xmlns="http://www.w3.org/2000/svg" xmlns:xlink="http://www.w3.org/1999/xlink" x="0px" y="0px"
	 viewBox="0 0 32 32" enable-background="new 0 0 32 32" xml:space="preserve">
<g>
	<g id="icomoon-ignore_17_">
	</g>
	<path fill="#010101" d="M16,8c-4.4,0-8,3.6-8,8c0,4.4,3.6,8,8,8s8-3.6,8-8S20.4,8,16,8z M16,22.9c-3.8,0-6.9-3.1-6.9-6.9
		c0-3.8,3.1-6.9,6.9-6.9s6.9,3.1,6.9,6.9C22.9,19.8,19.8,22.9,16,22.9z"/>
	<path fill="#010101" d="M15.5,0h1.1v6.4h-1.1L15.5,0z"/>
	<path fill="#010101" d="M15.5,25.6h1.1V32h-1.1L15.5,25.6z"/>
	<path fill="#010101" d="M0,15.5h6.4v1.1H0L0,15.5z"/>
	<path fill="#010101" d="M25.6,15.5H32v1.1h-6.4V15.5z"/>
	<path fill="#010101" d="M26.9,4.3L27.7,5l-4.5,4.5l-0.8-0.8L26.9,4.3z"/>
	<path fill="#010101" d="M5.1,27.6l-0.8-0.8l4.5-4.5l0.8,0.8L5.1,27.6z"/>
	<path fill="#010101" d="M5.1,4.3l4.5,4.5L8.8,9.5L4.3,5L5.1,4.3z"/>
	<path fill="#010101" d="M26.9,27.6l-4.5-4.5l0.8-0.8l4.5,4.5L26.9,27.6z"/>
</g>
</svg>
