<?xml version="1.0" encoding="utf-8"?>
<!-- Generator: Adobe Illustrator 18.0.0, SVG Export Plug-In . SVG Version: 6.00 Build 0)  -->
<!DOCTYPE svg PUBLIC "-//W3C//DTD SVG 1.1//EN" "http://www.w3.org/Graphics/SVG/1.1/DTD/svg11.dtd">
<svg version="1.1" id="Layer_1" xmlns="http://www.w3.org/2000/svg" xmlns:xlink="http://www.w3.org/1999/xlink" x="0px" y="0px"
	 viewBox="0 0 19.2 25.3" enable-background="new 0 0 19.2 25.3" xml:space="preserve">
<g>
	<path fill="#FFFFFF" d="M19.2,3h-5.1V2c0-1.1-0.9-2-2-2H7.1c-1.1,0-2,0.9-2,2v1H0v1h1l1,19.2c0,1.1,0.9,2,2,2h11.1c1.1,0,2-0.9,2-2
		l1-19.2h1L19.2,3L19.2,3z M6.1,2c0-0.6,0.5-1,1-1h5.1c0.6,0,1,0.5,1,1v1H6.1L6.1,2L6.1,2z M16.2,23.2L16.2,23.2L16.2,23.2
		c0,0.6-0.5,1.1-1,1.1H4.1c-0.6,0-1-0.5-1-1v0l0,0L2.1,4h15.1L16.2,23.2z"/>
	<path fill="#FFFFFF" d="M9.1,6.1h1v16.2h-1L9.1,6.1z"/>
	<path fill="#FFFFFF" d="M7.1,22.2l-1-16.1l-1,0.1l1,16.1L7.1,22.2z"/>
	<path fill="#FFFFFF" d="M14.1,6.1l-1-0.1l-1,16.2l1,0.1L14.1,6.1z"/>
</g>
</svg>
