<?xml version="1.0" encoding="utf-8"?>
<!-- Generator: Adobe Illustrator 18.0.0, SVG Export Plug-In . SVG Version: 6.00 Build 0)  -->
<!DOCTYPE svg PUBLIC "-//W3C//DTD SVG 1.1//EN" "http://www.w3.org/Graphics/SVG/1.1/DTD/svg11.dtd">
<svg version="1.1" id="Layer_1" xmlns="http://www.w3.org/2000/svg" xmlns:xlink="http://www.w3.org/1999/xlink" x="0px" y="0px"
	 viewBox="0 0 114.1 114.1" enable-background="new 0 0 114.1 114.1" xml:space="preserve">
<g>
	<circle fill="#010101" cx="57.1" cy="57.1" r="57.1"/>
</g>
<g>
	<g>
		<path fill="#FFFFFF" d="M42.9,99c-4.3,0-8.3-1.7-11.3-4.7c-6.2-6.2-6.2-16.4,0-22.6l2.9-2.9L19.8,54.2c-6.2-6.2-6.2-16.4,0-22.6
			c3-3,7-4.7,11.3-4.7s8.3,1.7,11.3,4.7l2.9,2.9l14.6-14.6c3-3,7-4.7,11.3-4.7c4.3,0,8.3,1.7,11.3,4.7c6.2,6.2,6.2,16.4,0,22.6
			l-2.9,2.9l14.6,14.6c6.2,6.2,6.2,16.4,0,22.6c-3,3-7,4.7-11.3,4.7c-4.3,0-8.3-1.7-11.3-4.7l-2.9-2.9L54.2,94.3
			C51.2,97.3,47.1,99,42.9,99z M31.2,27.8c-4,0-7.8,1.6-10.7,4.4c-5.9,5.9-5.9,15.4,0,21.3l15.3,15.3l-3.5,3.5
			c-5.9,5.9-5.9,15.4,0,21.3c2.8,2.8,6.6,4.4,10.7,4.4s7.8-1.6,10.7-4.4l15.3-15.3l3.5,3.5c2.8,2.8,6.6,4.4,10.7,4.4
			s7.8-1.6,10.7-4.4c5.9-5.9,5.9-15.4,0-21.3L78.4,45.3l3.5-3.5c5.9-5.9,5.9-15.4,0-21.3c-2.8-2.8-6.6-4.4-10.7-4.4
			s-7.8,1.6-10.7,4.4L45.3,35.8l-3.5-3.5C39,29.4,35.2,27.8,31.2,27.8z"/>
	</g>
	<g>
		<path fill="#FFFFFF" d="M71.2,99c-4.3,0-8.3-1.7-11.3-4.7L45.3,79.7l-2.9,2.9c-3,3-7,4.7-11.3,4.7s-8.3-1.7-11.3-4.7
			c-6.2-6.2-6.2-16.4,0-22.6l14.6-14.6l-2.9-2.9c-6.2-6.2-6.2-16.4,0-22.6c3-3,7-4.7,11.3-4.7s8.3,1.7,11.3,4.7l14.6,14.6l2.9-2.9
			c3-3,7-4.7,11.3-4.7c4.3,0,8.3,1.7,11.3,4.7c3,3,4.7,7,4.7,11.3c0,4.3-1.7,8.3-4.7,11.3L79.7,68.8l2.9,2.9
			c6.2,6.2,6.2,16.4,0,22.6C79.5,97.3,75.5,99,71.2,99z M45.3,78.4l15.3,15.3c2.8,2.8,6.6,4.4,10.7,4.4s7.8-1.6,10.7-4.4
			c5.9-5.9,5.9-15.4,0-21.3l-3.5-3.5l15.3-15.3c2.8-2.8,4.4-6.6,4.4-10.7c0-4-1.6-7.8-4.4-10.7c-2.8-2.8-6.6-4.4-10.7-4.4
			s-7.8,1.6-10.7,4.4l-3.5,3.5L53.5,20.5c-2.8-2.8-6.6-4.4-10.7-4.4s-7.8,1.6-10.7,4.4c-5.9,5.9-5.9,15.4,0,21.3l3.5,3.5L20.5,60.6
			c-5.9,5.9-5.9,15.4,0,21.3c2.8,2.8,6.6,4.4,10.7,4.4s7.8-1.6,10.7-4.4L45.3,78.4z"/>
	</g>
	<g>
		<path fill="#FFFFFF" d="M73.8,61.2H40.3c-0.8,0-1.4-0.6-1.4-1.4c0-0.5,0.3-1,0.8-1.2l17-7.6c0.1-0.7,0.6-1.5,1.2-2.3
			c0.5-0.8,1.1-1.6,1.1-2.1c0-1.1-0.9-1.9-1.9-1.9c-1.1,0-1.9,0.9-1.9,1.9h-0.7c0-1.5,1.2-2.6,2.6-2.6s2.6,1.2,2.6,2.6
			c0,0.7-0.6,1.6-1.2,2.5c-0.5,0.7-0.9,1.4-1.1,1.9l16.9,7.6c0.5,0.2,0.8,0.7,0.8,1.2C75.1,60.6,74.5,61.2,73.8,61.2z M57.1,51.6
			l-17,7.6c-0.2,0.1-0.4,0.3-0.4,0.6c0,0.4,0.3,0.7,0.7,0.7h33.4c0.4,0,0.7-0.3,0.7-0.7c0-0.3-0.1-0.5-0.4-0.6L57.1,51.6z"/>
	</g>
</g>
</svg>
