<?xml version="1.0" encoding="utf-8"?>
<!-- Generator: Adobe Illustrator 18.0.0, SVG Export Plug-In . SVG Version: 6.00 Build 0)  -->
<!DOCTYPE svg PUBLIC "-//W3C//DTD SVG 1.1//EN" "http://www.w3.org/Graphics/SVG/1.1/DTD/svg11.dtd">
<svg version="1.1" id="Layer_1" xmlns="http://www.w3.org/2000/svg" xmlns:xlink="http://www.w3.org/1999/xlink" x="0px" y="0px"
	 viewBox="0 0 137.9 36.4" enable-background="new 0 0 137.9 36.4" xml:space="preserve">
<g>
	<g>
		<path fill="#FFFFFF" d="M5.8,5.5H0V0h17.1v5.5h-5.8v30.9H5.8V5.5z"/>
	</g>
	<g>
		<path fill="#FFFFFF" d="M38.4,0c3.1,0,5.3,0.8,6.7,2.5C46.4,4,47,6.1,47,8.7V14c0,2.6-1,4.8-2.9,6.5l4.1,15.9h-5.9l-3.3-13.7
			c-0.2,0-0.3,0-0.5,0h-3.2v13.7h-5.5V0H38.4z M41.7,8.8c0-2.1-1-3.2-3.1-3.2h-3.3v11.6h3.3c0.9,0,1.6-0.3,2.2-0.9
			c0.6-0.6,0.9-1.4,0.9-2.2V8.8z"/>
	</g>
	<g>
		<path fill="#FFFFFF" d="M61,36.4V0h15.6v5.5H66.5v9.9h7.4V21h-7.4v9.9h10.1v5.5H61z"/>
	</g>
	<g>
		<path fill="#FFFFFF" d="M94.8,0l7.3,24.5V0h5.5v36.4h-5.9l-7.6-23.3v23.3h-5.5V0H94.8z"/>
	</g>
	<g>
		<path fill="#FFFFFF" d="M137.9,27.7c0,2.4-0.8,4.5-2.5,6.2c-1.7,1.7-3.7,2.6-6.1,2.6h-8.6V0h8.6c2.4,0,4.4,0.9,6.1,2.6
			s2.5,3.7,2.5,6.1V27.7z M126.1,31h3.3c0.9,0,1.6-0.3,2.2-0.9c0.6-0.6,0.9-1.4,0.9-2.2V8.8c0-0.9-0.3-1.6-0.9-2.2
			c-0.6-0.6-1.3-0.9-2.2-0.9h-3.3V31z"/>
	</g>
</g>
</svg>
